{"title":"Mission Impossible Ghost Protocol 2011 CAM READNFO SUBBED XviD -","uid":7031295,"size":1797169749,"categoryP":"video","categoryS":"movies","magnet":"?xt=urn:btih:fcab77ff6fe60cbdf9fafeaf070332f88c3f0f76&amp;dn=Mission+Impossible+Ghost+Protocol+2011+CAM+READNFO+SUBBED+XviD+-&amp;tr=udp%3A%2F%2Ftracker.openbittorrent.com%3A80&amp;tr=udp%3A%2F%2Fopen.demonii.com%3A1337&amp;tr=udp%3A%2F%2Ftracker.coppersurfer.tk%3A6969&amp;tr=udp%3A%2F%2Fexodus.desync.com%3A6969","seeders":0,"leechers":0,"uploader":"moviesp2p","files":121,"time":1329224658,"description":"Mission Impossible 2011 CAM READNFO SUBBED XviD - ILLUMINATI\n\nVideo\nID : 0\nFormat : MPEG-4 Visual\nFormat profile : Advanced Simple@L5\nFormat settings, BVOP : 2\nFormat settings, QPel : No\nFormat settings, GMC : No warppoints\nFormat settings, Matrix : Default (H.263)\nMuxing mode : Packed bitstream\nCodec ID : XVID\nCodec ID/Hint : XviD\nDuration : 2h 6mn\nBit rate : 1 746 Kbps\nWidth : 720 pixels\nHeight : 288 pixels\nDisplay aspect ratio : 2.500\nFrame rate : 25.000 fps\nColor space : YUV\nChroma subsampling : 4:2:0\nBit depth : 8 bits\nScan type : Progressive\nCompression mode : Lossy\nBits/(Pixel*Frame) : 0.337\nStream size : 1.54 GiB (93%)\nWriting library : XviD 64\n\nAudio\nID : 1\nFormat : MPEG Audio\nFormat version : Version 1\nFormat profile : Layer 3\nMode : Joint stereo\nMode extension : MS Stereo\nCodec ID : 55\nCodec ID/Hint : MP3\nDuration : 2h 6mn\nBit rate mode : Constant\nBit rate : 128 Kbps\nChannel(s) : 2 channels\nSampling rate : 44.1 KHz\nCompression mode : Lossy\nStream size : 116 MiB (7%)\nAlignment : Split accross interleaves\nInterleave, duration : 40 ms (1.00 video frame)\n\n\nVideo: p76 thanks\nAudio: UNKNOWN thanks\nsubs: hardcoded when needed\n\nalot of work went into video, rotate, stretch\nadjust RGB and whitebalance ran a smoother\nover with a denoiser and yada yada...\n65 lines of ENGLISH subs hardcoded in white when needed","torrent":{"xt":"urn:btih:fcab77ff6fe60cbdf9fafeaf070332f88c3f0f76","amp;dn":"Mission+Impossible+Ghost+Protocol+2011+CAM+READNFO+SUBBED+XviD+-","amp;tr":["udp%3A%2F%2Ftracker.openbittorrent.com%3A80","udp%3A%2F%2Fopen.demonii.com%3A1337","udp%3A%2F%2Ftracker.coppersurfer.tk%3A6969","udp%3A%2F%2Fexodus.desync.com%3A6969"],"infoHash":"fcab77ff6fe60cbdf9fafeaf070332f88c3f0f76","infoHashBuffer":{"type":"Buffer","data":[252,171,119,255,111,230,12,189,249,250,254,175,7,3,50,248,140,63,15,118]},"announce":[],"urlList":[]}}